<svg width="28" height="28" viewBox="0 0 28 28" fill="none" xmlns="http://www.w3.org/2000/svg">
<path d="M5.95977 14.3182H5.97092M13.7685 14.3182H13.7796M21.5772 14.3182H21.5883M7.0753 14.3182C7.0753 14.614 6.95777 14.8978 6.74857 15.107C6.53936 15.3162 6.25563 15.4337 5.95977 15.4337C5.66391 15.4337 5.38017 15.3162 5.17097 15.107C4.96177 14.8978 4.84424 14.614 4.84424 14.3182C4.84424 14.0223 4.96177 13.7386 5.17097 13.5294C5.38017 13.3202 5.66391 13.2027 5.95977 13.2027C6.25563 13.2027 6.53936 13.3202 6.74857 13.5294C6.95777 13.7386 7.0753 14.0223 7.0753 14.3182ZM14.884 14.3182C14.884 14.614 14.7665 14.8978 14.5573 15.107C14.3481 15.3162 14.0643 15.4337 13.7685 15.4337C13.4726 15.4337 13.1889 15.3162 12.9797 15.107C12.7705 14.8978 12.653 14.614 12.653 14.3182C12.653 14.0223 12.7705 13.7386 12.9797 13.5294C13.1889 13.3202 13.4726 13.2027 13.7685 13.2027C14.0643 13.2027 14.3481 13.3202 14.5573 13.5294C14.7665 13.7386 14.884 14.0223 14.884 14.3182ZM22.6927 14.3182C22.6927 14.614 22.5752 14.8978 22.366 15.107C22.1568 15.3162 21.873 15.4337 21.5772 15.4337C21.2813 15.4337 20.9976 15.3162 20.7884 15.107C20.5792 14.8978 20.4617 14.614 20.4617 14.3182C20.4617 14.0223 20.5792 13.7386 20.7884 13.5294C20.9976 13.3202 21.2813 13.2027 21.5772 13.2027C21.873 13.2027 22.1568 13.3202 22.366 13.5294C22.5752 13.7386 22.6927 14.0223 22.6927 14.3182Z" stroke="#6B7280" stroke-width="2.67727" stroke-linecap="round" stroke-linejoin="round"/>
</svg>
