<svg width="14" height="8" viewBox="0 0 14 8" fill="none" xmlns="http://www.w3.org/2000/svg">
<path fill-rule="evenodd" clip-rule="evenodd" d="M1.35556 0.648532C1.59111 0.413051 1.91055 0.280764 2.24362 0.280764C2.57669 0.280764 2.89613 0.413051 3.13168 0.648532L7.26801 4.78486L11.4043 0.648532C11.5202 0.528562 11.6588 0.43287 11.8121 0.367039C11.9653 0.301208 12.1301 0.266557 12.2969 0.265108C12.4637 0.263659 12.6291 0.29544 12.7835 0.358597C12.9378 0.421755 13.0781 0.515024 13.196 0.632963C13.314 0.750901 13.4072 0.891147 13.4704 1.04552C13.5336 1.19989 13.5653 1.36529 13.5639 1.53207C13.5624 1.69886 13.5278 1.86368 13.462 2.01693C13.3961 2.17018 13.3004 2.30878 13.1805 2.42465L8.15607 7.44904C7.92052 7.68453 7.60109 7.81681 7.26801 7.81681C6.93494 7.81681 6.61551 7.68453 6.37995 7.44904L1.35556 2.42465C1.12008 2.1891 0.987793 1.86967 0.987793 1.53659C0.987793 1.20352 1.12008 0.884086 1.35556 0.648532V0.648532Z" fill="#9CA3AF"/>
</svg>
