<svg width="22" height="22" viewBox="0 0 22 22" fill="none" xmlns="http://www.w3.org/2000/svg">
<path fill-rule="evenodd" clip-rule="evenodd" d="M6.57424 12.3746C6.74126 12.2077 6.96775 12.1139 7.20392 12.1139C7.44008 12.1139 7.66658 12.2077 7.83359 12.3746L10.7664 15.3075L13.6993 12.3746C13.7815 12.2896 13.8797 12.2217 13.9884 12.175C14.0971 12.1284 14.2139 12.1038 14.3322 12.1028C14.4504 12.1017 14.5677 12.1243 14.6772 12.1691C14.7866 12.2138 14.8861 12.28 14.9697 12.3636C15.0533 12.4472 15.1194 12.5467 15.1642 12.6561C15.209 12.7656 15.2315 12.8829 15.2305 13.0011C15.2295 13.1194 15.2049 13.2362 15.1582 13.3449C15.1116 13.4536 15.0437 13.5518 14.9587 13.634L11.3961 17.1965C11.2291 17.3635 11.0026 17.4573 10.7664 17.4573C10.5303 17.4573 10.3038 17.3635 10.1368 17.1965L6.57424 13.634C6.40727 13.467 6.31348 13.2405 6.31348 13.0043C6.31348 12.7682 6.40727 12.5417 6.57424 12.3746Z" fill="#6B7280"/>
<path fill-rule="evenodd" clip-rule="evenodd" d="M14.9698 9.68874C14.8028 9.85571 14.5763 9.94951 14.3401 9.94951C14.1039 9.94951 13.8775 9.85571 13.7104 9.68874L10.7776 6.75589L7.84473 9.68874C7.76257 9.7738 7.6643 9.84166 7.55563 9.88833C7.44697 9.93501 7.33011 9.95958 7.21185 9.96061C7.09359 9.96163 6.97631 9.9391 6.86686 9.89432C6.7574 9.84954 6.65796 9.7834 6.57434 9.69978C6.49071 9.61616 6.42458 9.51672 6.3798 9.40726C6.33502 9.2978 6.31248 9.18053 6.31351 9.06227C6.31454 8.94401 6.33911 8.82714 6.38578 8.71848C6.43246 8.60982 6.50031 8.51154 6.58538 8.42939L10.1479 4.86686C10.3149 4.69989 10.5414 4.60609 10.7776 4.60609C11.0137 4.60609 11.2402 4.69989 11.4073 4.86686L14.9698 8.42939C15.1368 8.59641 15.2306 8.8229 15.2306 9.05906C15.2306 9.29523 15.1368 9.52172 14.9698 9.68874Z" fill="#6B7280"/>
</svg>
