<svg width="22" height="17" viewBox="0 0 22 17" fill="none" xmlns="http://www.w3.org/2000/svg">
<path fill-rule="evenodd" clip-rule="evenodd" d="M4.07499 0.740906C3.00991 0.740906 1.98844 1.16401 1.23531 1.91714C0.482186 2.67027 0.059082 3.69173 0.059082 4.75681V12.7886C0.059082 13.8537 0.482186 14.8752 1.23531 15.6283C1.98844 16.3814 3.00991 16.8045 4.07499 16.8045H17.4614C18.5264 16.8045 19.5479 16.3814 20.301 15.6283C21.0542 14.8752 21.4773 13.8537 21.4773 12.7886V4.75681C21.4773 3.69173 21.0542 2.67027 20.301 1.91714C19.5479 1.16401 18.5264 0.740906 17.4614 0.740906H4.07499ZM2.73635 12.7886V11.45H9.42954V14.1273H4.07499C3.71996 14.1273 3.37948 13.9862 3.12843 13.7352C2.87739 13.4841 2.73635 13.1437 2.73635 12.7886ZM12.1068 14.1273H17.4614C17.8164 14.1273 18.1569 13.9862 18.4079 13.7352C18.659 13.4841 18.8 13.1437 18.8 12.7886V11.45H12.1068V14.1273ZM12.1068 8.77272H18.8V6.09545H12.1068V8.77272ZM9.42954 6.09545H2.73635V8.77272H9.42954V6.09545Z" fill="white"/>
</svg>
